<svg width="89" height="17" viewBox="0 0 89 17" fill="none" xmlns="http://www.w3.org/2000/svg">
<path d="M33.14 13.986C33.464 13.986 33.74 13.948 33.968 13.872C34.2 13.796 34.388 13.692 34.532 13.56C34.68 13.428 34.788 13.272 34.856 13.092C34.924 12.908 34.958 12.708 34.958 12.492C34.958 12.064 34.81 11.728 34.514 11.484C34.218 11.236 33.76 11.112 33.14 11.112H31.34V13.986H33.14ZM31.34 7.386V10.206H32.81C33.438 10.206 33.904 10.08 34.208 9.828C34.516 9.572 34.67 9.228 34.67 8.796C34.67 8.304 34.524 7.946 34.232 7.722C33.94 7.498 33.486 7.386 32.87 7.386H31.34ZM32.87 6.384C33.41 6.384 33.872 6.436 34.256 6.54C34.644 6.644 34.962 6.794 35.21 6.99C35.458 7.186 35.64 7.424 35.756 7.704C35.876 7.98 35.936 8.294 35.936 8.646C35.936 8.854 35.904 9.054 35.84 9.246C35.776 9.438 35.678 9.618 35.546 9.786C35.414 9.95 35.248 10.098 35.048 10.23C34.848 10.362 34.612 10.472 34.34 10.56C35.592 10.808 36.218 11.462 36.218 12.522C36.218 12.89 36.15 13.226 36.014 13.53C35.878 13.83 35.68 14.09 35.42 14.31C35.16 14.53 34.84 14.7 34.46 14.82C34.08 14.94 33.648 15 33.164 15H30.062V6.384H32.87ZM38.5901 10.074C38.7861 9.674 39.0221 9.36 39.2981 9.132C39.5741 8.904 39.9061 8.79 40.2941 8.79C40.4261 8.79 40.5501 8.806 40.6661 8.838C40.7861 8.866 40.8901 8.91 40.9781 8.97L40.9001 9.852C40.8721 9.96 40.8061 10.014 40.7021 10.014C40.6461 10.014 40.5621 10.004 40.4501 9.984C40.3381 9.96 40.2181 9.948 40.0901 9.948C39.9021 9.948 39.7361 9.976 39.5921 10.032C39.4481 10.084 39.3181 10.164 39.2021 10.272C39.0901 10.376 38.9901 10.506 38.9021 10.662C38.8141 10.814 38.7321 10.988 38.6561 11.184V15H37.4861V8.904H38.1581C38.2861 8.904 38.3721 8.928 38.4161 8.976C38.4641 9.02 38.4981 9.1 38.5181 9.216L38.5901 10.074ZM45.6959 11.274C45.6959 11.042 45.6619 10.828 45.5939 10.632C45.5299 10.436 45.4339 10.266 45.3059 10.122C45.1779 9.978 45.0219 9.866 44.8379 9.786C44.6539 9.706 44.4419 9.666 44.2019 9.666C43.7099 9.666 43.3219 9.808 43.0379 10.092C42.7579 10.376 42.5799 10.77 42.5039 11.274H45.6959ZM46.6619 14.13C46.5179 14.298 46.3519 14.444 46.1639 14.568C45.9759 14.688 45.7759 14.786 45.5639 14.862C45.3519 14.938 45.1319 14.994 44.9039 15.03C44.6799 15.066 44.4579 15.084 44.2379 15.084C43.8179 15.084 43.4279 15.014 43.0679 14.874C42.7119 14.73 42.4019 14.522 42.1379 14.25C41.8779 13.974 41.6739 13.634 41.5259 13.23C41.3819 12.822 41.3099 12.354 41.3099 11.826C41.3099 11.402 41.3759 11.008 41.5079 10.644C41.6399 10.276 41.8279 9.956 42.0719 9.684C42.3199 9.412 42.6219 9.198 42.9779 9.042C43.3339 8.886 43.7339 8.808 44.1779 8.808C44.5499 8.808 44.8919 8.87 45.2039 8.994C45.5199 9.114 45.7919 9.29 46.0199 9.522C46.2479 9.754 46.4259 10.04 46.5539 10.38C46.6859 10.72 46.7519 11.108 46.7519 11.544C46.7519 11.724 46.7319 11.846 46.6919 11.91C46.6519 11.97 46.5779 12 46.4699 12H42.4739C42.4859 12.364 42.5379 12.682 42.6299 12.954C42.7219 13.222 42.8479 13.446 43.0079 13.626C43.1719 13.806 43.3659 13.94 43.5899 14.028C43.8139 14.116 44.0639 14.16 44.3399 14.16C44.5999 14.16 44.8239 14.13 45.0119 14.07C45.2039 14.01 45.3679 13.946 45.5039 13.878C45.6439 13.806 45.7599 13.74 45.8519 13.68C45.9479 13.62 46.0319 13.59 46.1039 13.59C46.1999 13.59 46.2739 13.626 46.3259 13.698L46.6619 14.13ZM51.2855 12.294C50.8095 12.31 50.4055 12.348 50.0735 12.408C49.7415 12.464 49.4715 12.54 49.2635 12.636C49.0555 12.732 48.9055 12.846 48.8135 12.978C48.7215 13.106 48.6755 13.25 48.6755 13.41C48.6755 13.562 48.6995 13.694 48.7475 13.806C48.7995 13.914 48.8675 14.004 48.9515 14.076C49.0395 14.144 49.1415 14.194 49.2575 14.226C49.3735 14.258 49.4995 14.274 49.6355 14.274C49.8155 14.274 49.9795 14.256 50.1275 14.22C50.2795 14.184 50.4215 14.134 50.5535 14.07C50.6855 14.002 50.8115 13.92 50.9315 13.824C51.0515 13.728 51.1695 13.618 51.2855 13.494V12.294ZM47.8535 9.756C48.1935 9.432 48.5615 9.19 48.9575 9.03C49.3575 8.87 49.7955 8.79 50.2715 8.79C50.6195 8.79 50.9275 8.848 51.1955 8.964C51.4635 9.076 51.6895 9.234 51.8735 9.438C52.0575 9.642 52.1955 9.886 52.2875 10.17C52.3835 10.454 52.4315 10.768 52.4315 11.112V15H51.9095C51.7935 15 51.7055 14.982 51.6455 14.946C51.5855 14.906 51.5375 14.834 51.5015 14.73L51.3755 14.196C51.2195 14.34 51.0655 14.468 50.9135 14.58C50.7615 14.688 50.6015 14.782 50.4335 14.862C50.2695 14.938 50.0935 14.996 49.9055 15.036C49.7175 15.076 49.5095 15.096 49.2815 15.096C49.0415 15.096 48.8155 15.064 48.6035 15C48.3955 14.932 48.2135 14.83 48.0575 14.694C47.9015 14.558 47.7775 14.388 47.6855 14.184C47.5975 13.98 47.5535 13.742 47.5535 13.47C47.5535 13.23 47.6175 13 47.7455 12.78C47.8775 12.556 48.0895 12.356 48.3815 12.18C48.6775 12.004 49.0615 11.86 49.5335 11.748C50.0095 11.636 50.5935 11.572 51.2855 11.556V11.112C51.2855 10.652 51.1875 10.308 50.9915 10.08C50.7955 9.852 50.5075 9.738 50.1275 9.738C49.8715 9.738 49.6555 9.77 49.4795 9.834C49.3075 9.898 49.1575 9.97 49.0295 10.05C48.9055 10.126 48.7955 10.196 48.6995 10.26C48.6075 10.324 48.5115 10.356 48.4115 10.356C48.3315 10.356 48.2615 10.334 48.2015 10.29C48.1455 10.246 48.0995 10.194 48.0635 10.134L47.8535 9.756ZM55.1678 6.144V11.322H55.4438C55.5278 11.322 55.5978 11.31 55.6538 11.286C55.7098 11.262 55.7678 11.214 55.8278 11.142L57.6518 9.132C57.7078 9.056 57.7698 9 57.8378 8.964C57.9058 8.924 57.9918 8.904 58.0958 8.904H59.1638L57.0098 11.262C56.8938 11.41 56.7698 11.524 56.6378 11.604C56.7138 11.656 56.7798 11.716 56.8358 11.784C56.8958 11.852 56.9538 11.926 57.0098 12.006L59.3018 15H58.2518C58.1558 15 58.0718 14.984 57.9998 14.952C57.9318 14.92 57.8698 14.862 57.8138 14.778L55.9298 12.33C55.8698 12.238 55.8098 12.18 55.7498 12.156C55.6898 12.128 55.5998 12.114 55.4798 12.114H55.1678V15H53.9978V6.144H55.1678ZM63.8106 10.38C63.6186 10.128 63.4106 9.952 63.1866 9.852C62.9666 9.752 62.7186 9.702 62.4426 9.702C61.9066 9.702 61.4906 9.896 61.1946 10.284C60.9026 10.668 60.7566 11.23 60.7566 11.97C60.7566 12.358 60.7886 12.69 60.8526 12.966C60.9206 13.238 61.0166 13.462 61.1406 13.638C61.2686 13.81 61.4246 13.938 61.6086 14.022C61.7926 14.102 62.0006 14.142 62.2326 14.142C62.5726 14.142 62.8666 14.066 63.1146 13.914C63.3626 13.762 63.5946 13.548 63.8106 13.272V10.38ZM64.9866 6.144V15H64.2786C64.1146 15 64.0126 14.922 63.9726 14.766L63.8706 14.064C63.6106 14.372 63.3146 14.62 62.9826 14.808C62.6546 14.992 62.2746 15.084 61.8426 15.084C61.4946 15.084 61.1786 15.016 60.8946 14.88C60.6146 14.744 60.3746 14.546 60.1746 14.286C59.9746 14.022 59.8206 13.696 59.7126 13.308C59.6046 12.92 59.5506 12.474 59.5506 11.97C59.5506 11.518 59.6106 11.098 59.7306 10.71C59.8506 10.322 60.0246 9.986 60.2526 9.702C60.4806 9.418 60.7566 9.196 61.0806 9.036C61.4046 8.872 61.7706 8.79 62.1786 8.79C62.5466 8.79 62.8586 8.85 63.1146 8.97C63.3746 9.09 63.6066 9.26 63.8106 9.48V6.144H64.9866ZM69.2169 8.808C69.6649 8.808 70.0689 8.882 70.4289 9.03C70.7929 9.174 71.1009 9.384 71.3529 9.66C71.6089 9.932 71.8049 10.262 71.9409 10.65C72.0769 11.034 72.1449 11.466 72.1449 11.946C72.1449 12.426 72.0769 12.86 71.9409 13.248C71.8049 13.636 71.6089 13.966 71.3529 14.238C71.1009 14.51 70.7929 14.72 70.4289 14.868C70.0689 15.012 69.6649 15.084 69.2169 15.084C68.7649 15.084 68.3569 15.012 67.9929 14.868C67.6329 14.72 67.3249 14.51 67.0689 14.238C66.8129 13.966 66.6149 13.636 66.4749 13.248C66.3389 12.86 66.2709 12.426 66.2709 11.946C66.2709 11.466 66.3389 11.034 66.4749 10.65C66.6149 10.262 66.8129 9.932 67.0689 9.66C67.3249 9.384 67.6329 9.174 67.9929 9.03C68.3569 8.882 68.7649 8.808 69.2169 8.808ZM69.2169 14.172C69.7929 14.172 70.2229 13.978 70.5069 13.59C70.7909 13.202 70.9329 12.656 70.9329 11.952C70.9329 11.248 70.7909 10.702 70.5069 10.314C70.2229 9.922 69.7929 9.726 69.2169 9.726C68.6329 9.726 68.1969 9.922 67.9089 10.314C67.6249 10.702 67.4829 11.248 67.4829 11.952C67.4829 12.656 67.6249 13.202 67.9089 13.59C68.1969 13.978 68.6329 14.172 69.2169 14.172ZM81.8352 8.904L79.8732 15H78.9372C78.8252 15 78.7492 14.926 78.7092 14.778L77.4252 10.806C77.3932 10.706 77.3652 10.608 77.3412 10.512C77.3172 10.412 77.2952 10.312 77.2752 10.212C77.2392 10.42 77.1892 10.622 77.1252 10.818L75.8232 14.778C75.7832 14.926 75.6972 15 75.5652 15H74.6772L72.7092 8.904H73.6332C73.7252 8.904 73.8012 8.926 73.8612 8.97C73.9252 9.014 73.9672 9.07 73.9872 9.138L75.0852 12.882C75.1212 13.034 75.1532 13.182 75.1812 13.326C75.2092 13.47 75.2352 13.614 75.2592 13.758C75.2952 13.614 75.3332 13.47 75.3732 13.326C75.4172 13.182 75.4612 13.034 75.5052 12.882L76.7232 9.114C76.7432 9.046 76.7812 8.992 76.8372 8.952C76.8932 8.908 76.9612 8.886 77.0412 8.886H77.5512C77.6392 8.886 77.7112 8.908 77.7672 8.952C77.8272 8.992 77.8672 9.046 77.8872 9.114L79.0752 12.882C79.1192 13.034 79.1612 13.184 79.2012 13.332C79.2412 13.476 79.2772 13.622 79.3092 13.77C79.3332 13.626 79.3612 13.482 79.3932 13.338C79.4252 13.19 79.4612 13.038 79.5012 12.882L80.6172 9.138C80.6372 9.07 80.6772 9.014 80.7372 8.97C80.8012 8.926 80.8732 8.904 80.9532 8.904H81.8352ZM83.9239 9.75C84.0559 9.61 84.1939 9.482 84.3379 9.366C84.4819 9.25 84.6339 9.152 84.7939 9.072C84.9579 8.988 85.1319 8.924 85.3159 8.88C85.5039 8.832 85.7039 8.808 85.9159 8.808C86.2519 8.808 86.5459 8.864 86.7979 8.976C87.0539 9.088 87.2679 9.246 87.4399 9.45C87.6119 9.65 87.7419 9.892 87.8299 10.176C87.9179 10.46 87.9619 10.774 87.9619 11.118V15H86.7859V11.118C86.7859 10.682 86.6859 10.344 86.4859 10.104C86.2859 9.86 85.9799 9.738 85.5679 9.738C85.2679 9.738 84.9859 9.81 84.7219 9.954C84.4619 10.094 84.2199 10.286 83.9959 10.53V15H82.8259V8.904H83.5279C83.6919 8.904 83.7939 8.982 83.8339 9.138L83.9239 9.75Z" fill="#0D1C31"/>
<path d="M0 6C0 3.52786 2.82229 2.11672 4.8 3.6L10.1195 7.58965C11.2239 8.4179 12.7509 8.38566 13.8192 7.51152L18.1003 4.00885C20.0591 2.40621 23 3.79985 23 6.33073V14C23 15.6569 21.6569 17 20 17H3C1.34315 17 0 15.6569 0 14V6Z" fill="#0D1C31"/>
</svg>
